<svg width="32" height="32" viewBox="0 0 32 32" fill="none" xmlns="http://www.w3.org/2000/svg">
    <path d="M23.8304 16.18C23.8304 15.6533 23.7837 15.1533 23.7037 14.6666H16.1704V17.6733H20.4837C20.2904 18.66 19.7237 19.4933 18.8837 20.06V22.06H21.4571C22.9637 20.6666 23.8304 18.6133 23.8304 16.18Z" fill="#4285F4"/>
    <path d="M16.1703 24.0001C18.3303 24.0001 20.137 23.2801 21.457 22.0601L18.8837 20.0601C18.1637 20.5401 17.2503 20.8334 16.1703 20.8334C14.0837 20.8334 12.317 19.4267 11.6837 17.5267H9.03033V19.5867C10.3437 22.2001 13.0437 24.0001 16.1703 24.0001Z" fill="#34A853"/>
    <path d="M11.6837 17.5267C11.5171 17.0467 11.4304 16.5333 11.4304 16C11.4304 15.4667 11.5237 14.9533 11.6837 14.4733V12.4133H9.03041C8.48374 13.4933 8.17041 14.7067 8.17041 16C8.17041 17.2933 8.48374 18.5067 9.03041 19.5867L11.6837 17.5267Z" fill="#FBBC05"/>
    <path d="M16.1703 11.1667C17.3503 11.1667 18.4037 11.5733 19.237 12.3667L21.517 10.0867C20.137 8.79333 18.3303 8 16.1703 8C13.0437 8 10.3437 9.8 9.03033 12.4133L11.6837 14.4733C12.317 12.5733 14.0837 11.1667 16.1703 11.1667Z" fill="#EA4335"/>
</svg>