<svg width="47" height="31" viewBox="0 0 47 31" fill="none" xmlns="http://www.w3.org/2000/svg">
    <rect width="47" height="31" rx="7.41379" fill="#24231F"/>
    <path d="M13 6.82759H15.8955V22.8276H13V6.82759Z" fill="white"/>
    <path d="M20.4876 6.82759H25.9167C28.4744 6.82759 30.461 7.47521 31.8766 8.77044C33.2922 10.0504 34 11.9552 34 14.4847V14.9419C34 16.2219 33.807 17.3571 33.4209 18.3476C33.0509 19.3228 32.504 20.1457 31.7801 20.8162C31.0723 21.4714 30.2037 21.9743 29.1741 22.3247C28.1446 22.66 26.9784 22.8276 25.6754 22.8276H20.4876V6.82759ZM25.4341 20.4504C26.2545 20.4504 27.0025 20.3514 27.6781 20.1533C28.3698 19.9552 28.957 19.6428 29.4396 19.2162C29.9222 18.7743 30.2921 18.2028 30.5495 17.5019C30.823 16.8009 30.9597 15.9476 30.9597 14.9419V14.4847C30.9597 13.5552 30.823 12.7552 30.5495 12.0847C30.2761 11.4143 29.9061 10.8657 29.4396 10.439C28.9731 10.0123 28.4101 9.69997 27.7505 9.50187C27.1071 9.30378 26.4154 9.20473 25.6754 9.20473H23.3831V20.4504H25.4341Z" fill="white"/>
</svg>