<svg id="esScmYvAWCK1" xmlns="http://www.w3.org/2000/svg" xmlns:xlink="http://www.w3.org/1999/xlink" viewBox="0 0 300 300" shape-rendering="geometricPrecision" text-rendering="geometricPrecision"><g><rect width="212.126569" height="22.27329" rx="0" ry="0" transform="matrix(1.41425 0 0 2.435715 0 122.874307)" fill="#27f" stroke-width="0"/><rect width="212.126569" height="22.27329" rx="0" ry="0" transform="matrix(1.41425 0 0 2.435715 0 0)" fill="#27f" stroke-width="0"/><rect width="212.126569" height="22.27329" rx="0" ry="0" transform="matrix(1.41425 0 0 2.435715 0 61.357602)" fill="#27f" stroke-width="0"/><rect width="212.126569" height="22.27329" rx="0" ry="0" transform="matrix(1.41425 0 0 2.435715 0 245.748614)" fill="#27f" stroke-width="0"/><rect width="212.126569" height="22.27329" rx="0" ry="0" transform="matrix(1.41425 0 0 2.435715 0 184.391011)" fill="#27f" stroke-width="0"/></g><g transform="translate(.000001 0)"><rect width="51.440693" height="17.500442" rx="0" ry="0" transform="translate(17.686054 18.375472)" fill="#fff" stroke-width="0"/><rect width="37.822913" height="19.846783" rx="0" ry="0" transform="matrix(.26439 0 0 0.50386 273.720196 22.125693)" fill="#fff" stroke-width="0"/><rect width="37.822913" height="19.846783" rx="0" ry="0" transform="matrix(.26439 0 0 0.50386 273.720196 83.483295)" fill="#fff" stroke-width="0"/><rect width="51.440693" height="17.500442" rx="0" ry="0" transform="translate(17.686054 79.733074)" fill="#fff" stroke-width="0"/><rect width="51.440693" height="17.500442" rx="0" ry="0" transform="translate(17.686054 141.249779)" fill="#fff" stroke-width="0"/><rect width="51.440693" height="17.500442" rx="0" ry="0" transform="translate(17.686054 202.766483)" fill="#fff" stroke-width="0"/><rect width="51.440693" height="17.500442" rx="0" ry="0" transform="translate(17.686054 264.124086)" fill="#fff" stroke-width="0"/><rect width="37.822913" height="19.846783" rx="0" ry="0" transform="matrix(.26439 0 0 0.50386 273.720196 145)" fill="#fff" stroke-width="0"/><rect width="37.822913" height="19.846783" rx="0" ry="0" transform="matrix(.26439 0 0 0.50386 273.720196 206.516704)" fill="#fff" stroke-width="0"/><rect width="37.822913" height="19.846783" rx="0" ry="0" transform="matrix(.26439 0 0 0.50386 273.720196 267.874307)" fill="#fff" stroke-width="0"/></g></svg>
